<svg xmlns="http://www.w3.org/2000/svg" viewBox="0 0 91.39 91.34"><defs><style>.cls-1{fill:#fff;}.cls-2{fill:#05334c;}</style></defs><g id="Layer_2" data-name="Layer 2"><g id="Layer_1-2" data-name="Layer 1"><g id="CUSTOM-group"><rect class="cls-1" x="14.66" y="13.7" width="60.85" height="50.43"/><path class="cls-2" d="M48.85,53.18H68.17V47.85H56.43A8.05,8.05,0,0,0,48.85,53.18Z"/><path class="cls-2" d="M35,22.41H23.22V42.5H35a13.41,13.41,0,0,1,8,2.68V30.44a8,8,0,0,0-8-8Z"/><path class="cls-2" d="M35,47.85H23.22v5.33H42.58A8.05,8.05,0,0,0,35,47.85Z"/><path class="cls-2" d="M48.39,30.44V45.18a13.41,13.41,0,0,1,8-2.68H68.17V22.41H56.43a8,8,0,0,0-8,8Z"/><path class="cls-2" d="M0,42.66A33,33,0,0,0,6.88,62.84L.1,88a2.69,2.69,0,0,0,3.81,3.08L33.69,75.7h24.7a33.07,33.07,0,0,0,33-33V33a33.07,33.07,0,0,0-33-33H33A33.07,33.07,0,0,0,0,33ZM17.86,19.73a2.68,2.68,0,0,1,2.68-2.68H35a13.36,13.36,0,0,1,10.71,5.37,13.39,13.39,0,0,1,10.72-5.37H70.89a2.68,2.68,0,0,1,2.68,2.68V55.89a2.68,2.68,0,0,1-2.68,2.68H20.54a2.68,2.68,0,0,1-2.68-2.68Z"/></g></g></g></svg>