<svg xmlns="http://www.w3.org/2000/svg" viewBox="0 0 373.25 98.16"><defs><style>.cls-1{fill:#182a46;}.cls-2,.cls-4{fill:#cbe8fc;}.cls-3{font-size:73.17px;fill:#fff;font-family:FredokaOne-Regular, Fredoka One;letter-spacing:0.05em;}.cls-4{font-size:21.05px;font-family:QuicksandBold-Regular, Quicksand;}.cls-5{letter-spacing:-0.01em;}.cls-6{letter-spacing:-0.01em;}.cls-7{letter-spacing:-0.02em;}</style></defs><g id="Layer_2" data-name="Layer 2"><g id="PRINT"><g id="CUSTOM-group"><rect class="cls-1" x="296.49" y="20.52" width="60.85" height="50.43"/><path class="cls-2" d="M330.68,60H350V54.67H338.26A8.05,8.05,0,0,0,330.68,60Z"/><path class="cls-2" d="M316.83,29.23H305V49.32h11.79a13.32,13.32,0,0,1,8,2.68V37.26A8,8,0,0,0,316.83,29.23Z"/><path class="cls-2" d="M316.83,54.67H305V60h19.37A8.06,8.06,0,0,0,316.83,54.67Z"/><path class="cls-2" d="M330.22,37.26V52a13.35,13.35,0,0,1,8-2.68H350V29.23H338.26A8,8,0,0,0,330.22,37.26Z"/><path class="cls-2" d="M281.83,49.48a33.1,33.1,0,0,0,6.88,20.18l-6.79,25.13a2.69,2.69,0,0,0,3.82,3.08l29.78-15.35h24.7a33.07,33.07,0,0,0,33-33v-9.7a33.07,33.07,0,0,0-33-33H314.87a33.08,33.08,0,0,0-33,33Zm17.86-22.93a2.68,2.68,0,0,1,2.68-2.68h14.46a13.35,13.35,0,0,1,10.71,5.37,13.39,13.39,0,0,1,10.72-5.37h14.46a2.68,2.68,0,0,1,2.68,2.68V62.71a2.68,2.68,0,0,1-2.68,2.68H302.37a2.68,2.68,0,0,1-2.68-2.68Z"/></g><text class="cls-3" transform="translate(0 63.4)">Gener8</text><text class="cls-4" transform="translate(109.82 91.75)"><tspan class="cls-5">S</tspan><tspan x="13.93" y="0">tudy Plat</tspan><tspan class="cls-6" x="106.8" y="0">f</tspan><tspan class="cls-7" x="114.17" y="0">o</tspan><tspan x="126.9" y="0">rm</tspan></text></g></g></svg>