<svg xmlns="http://www.w3.org/2000/svg" viewBox="0 0 430.67 442.01"><defs><style>.cls-1{fill:#ebebeb;}.cls-2{fill:#e0e0e0;}.cls-3{fill:#f5f5f5;}.cls-4{fill:#05334c;}.cls-5{fill:#fff;}.cls-6{fill:#0085db;}.cls-7{fill:#ffbf9d;}.cls-8{fill:#ff9a6c;}.cls-9{fill:#6b7f87;}.cls-10{opacity:0.3;}.cls-11{fill:#ae7461;}.cls-12{fill:#6f4439;}</style></defs><g id="Layer_2" data-name="Layer 2"><g id="Background_Complete" data-name="Background Complete"><path class="cls-1" d="M11.36,228.25s-9.22,1.71-3,21.5,11.1,29.89,11.1,29.89.92,4.51-2.8,4.54-11.43-2.57-13.81,1.5.1,9,6.17,13.92,19,16.08,20.14,17.09,2.08,3.18-.45,3.61S8,319.49,7.89,328s19.1,19.4,21.18,20.63,2.44,2.25,2.05,3.42-6.47.19-11.65.05-11.22.58-10.85,5.51,10.75,16.92,39.72,24.84L62,385.27l9.52-10.16c19-22.95,20.46-38.66,17.88-42.89s-7.94-1.39-12.09,1.68-8.53,7.32-9.54,6.59-1.3-1.78-.33-4,10.27-22,5.21-28.9-19.18,4.43-21.5,5.53-2.82-1.22-2.48-2.69,4.34-18,6.43-25.41,1.37-12.85-3.11-14.89-9.1,4.56-12.15,6.64-5-2.11-5-2.11S33,263.64,26.45,244,11.18,228.3,11.18,228.3"/><path class="cls-2" d="M62.16,388.58c-4.75-14.47-12.75-40.31-19.74-62.47s-13.32-42.2-18-56.68l-5.55-17.15-1.51-4.67c-.16-.52-.29-.92-.38-1.21s-.11-.42-.11-.42.06.13.15.4.24.69.43,1.21c.36,1.08.9,2.64,1.58,4.64,1.37,4,3.31,9.87,5.68,17.11C29.46,283.8,35.85,303.83,42.84,326s14.94,48,19.61,62.5"/><path class="cls-2" d="M13.45,289.76a4,4,0,0,1,.91.42c.58.3,1.39.76,2.4,1.33,2,1.14,4.74,2.79,7.72,4.67L32.1,301l2.31,1.45a3.89,3.89,0,0,1,.83.57,5.21,5.21,0,0,1-.91-.43c-.58-.3-1.39-.75-2.39-1.33-2-1.16-4.71-2.85-7.69-4.72l-7.65-4.78-2.32-1.43A5.09,5.09,0,0,1,13.45,289.76Z"/><path class="cls-2" d="M36.34,302.31c-.11-.06,3.1-5.76,7.16-12.73S50.94,277,51,277.06s-3.1,5.76-7.16,12.73S36.44,302.37,36.34,302.31Z"/><path class="cls-2" d="M45.51,336.81a4,4,0,0,1,.7-.74l2-1.92c1.7-1.62,4-3.86,6.53-6.44s4.68-5,6.24-6.71l1.85-2.07a5.16,5.16,0,0,1,.72-.73A3.84,3.84,0,0,1,63,319c-.4.52-1,1.26-1.75,2.16-1.5,1.81-3.65,4.25-6.15,6.82s-4.88,4.8-6.64,6.36c-.88.78-1.6,1.4-2.11,1.82A4.91,4.91,0,0,1,45.51,336.81Z"/><path class="cls-2" d="M22.27,329.94a4.2,4.2,0,0,1,.93.18l2.51.63c2.11.56,5,1.35,8.23,2.26s6.11,1.74,8.2,2.37l2.47.77a3.84,3.84,0,0,1,.89.34,4.1,4.1,0,0,1-.93-.18l-2.51-.64c-2.12-.55-5-1.35-8.24-2.25s-6.1-1.75-8.19-2.38l-2.47-.76A3.59,3.59,0,0,1,22.27,329.94Z"/><path class="cls-2" d="M26.43,361.41a6.58,6.58,0,0,1,1.2.24l3.22.8c2.71.7,6.45,1.69,10.57,2.81s7.85,2.15,10.54,2.93l3.19.93a7.11,7.11,0,0,1,1.15.4,6.58,6.58,0,0,1-1.2-.24l-3.22-.8c-2.71-.7-6.45-1.69-10.57-2.81s-7.85-2.16-10.54-2.93l-3.19-.93A7.11,7.11,0,0,1,26.43,361.41Z"/><path class="cls-2" d="M55.64,369.13a7,7,0,0,1,.87-1L59,365.65c2.08-2.13,5-5.08,8-8.43s5.78-6.44,7.72-8.7l2.3-2.67a8.61,8.61,0,0,1,.89-1,7.6,7.6,0,0,1-.76,1.06c-.5.66-1.25,1.6-2.19,2.76-1.89,2.3-4.56,5.44-7.64,8.79s-6,6.27-8.12,8.35c-1.08,1-2,1.87-2.57,2.43A8,8,0,0,1,55.64,369.13Z"/><path class="cls-3" d="M42.55,35.54,48,33.13l4.47-21.74L47.62.58s8.14-4.25,13.47,10.34,4.78,10.52,4.78,10.52,17.81-7.86,20-7c1.58.64,9.94,18.08,14.4,27.58,2.24,4.77,1.28,10.58-2.69,13.71a9,9,0,0,1-1.8,1.12c-4.43,2-28.69,8.47-28.69,8.47L57.7,69.51Z"/><polygon class="cls-3" points="25.73 39.49 45.58 75.05 54.85 70.91 38.66 34.61 25.73 39.49"/><path class="cls-3" d="M18.73,150.73a8.54,8.54,0,1,0-6.2,0C-.59,152.59,0,166,0,166l31,.14S31.73,152.58,18.73,150.73Z"/></g><g id="Device"><path class="cls-4" d="M210.92,442l-135.33-.08a29.48,29.48,0,0,1-29.46-29.48L46.2,73.18A29.48,29.48,0,0,1,75.69,43.71L211,43.79a29.48,29.48,0,0,1,29.46,29.48l-.07,339.27A29.48,29.48,0,0,1,210.92,442Z"/><path class="cls-5" d="M210.88,55.79l-26.24,0a6.52,6.52,0,0,0-6.37,6.66v4.76a6.51,6.51,0,0,1-6.38,6.65l-51.14,0a6.52,6.52,0,0,1-6.37-6.66V62.39A6.52,6.52,0,0,0,108,55.73H75.82A20.65,20.65,0,0,0,55.16,76.35L55.1,407.5a20.65,20.65,0,0,0,20.63,20.65l135.06.08a20.66,20.66,0,0,0,20.66-20.64l.06-331.15A20.64,20.64,0,0,0,210.88,55.79Z"/><path class="cls-2" d="M201,406.14H85.59a5.2,5.2,0,0,1-5.2-5.2V369.36a5.2,5.2,0,0,1,5.2-5.2H201a5.21,5.21,0,0,1,5.21,5.2v31.58A5.21,5.21,0,0,1,201,406.14Zm-115.43-41a4.2,4.2,0,0,0-4.2,4.2v31.58a4.2,4.2,0,0,0,4.2,4.2H201a4.21,4.21,0,0,0,4.21-4.2V369.36a4.21,4.21,0,0,0-4.21-4.2Z"/><path class="cls-6" d="M112.16,382.68a9.35,9.35,0,1,0-17.41,4.73h0l0,0c.36.6.81,1,1.26,1.67l5.43,7.19a1.68,1.68,0,0,0,2.69,0l5.34-7.07a19.94,19.94,0,0,0,1.36-1.8l0,0h0A9.36,9.36,0,0,0,112.16,382.68Zm-9.35,4.07a4.12,4.12,0,1,1,4.11-4.11A4.11,4.11,0,0,1,102.81,386.75Z"/><rect class="cls-2" x="126.53" y="379.97" width="67.77" height="11.1" rx="4.95"/><path class="cls-6" d="M79.14,303.76c0-4.21,3.23-7.21,7.62-7.21a7.33,7.33,0,0,1,6,2.62l-2.49,2.26A4.1,4.1,0,0,0,87,299.8a4,4,0,0,0,0,7.93,4.1,4.1,0,0,0,3.27-1.63l2.49,2.26a7.32,7.32,0,0,1-6,2.61C82.37,311,79.14,308,79.14,303.76Z"/><path class="cls-6" d="M93.46,303.76c0-4.16,3.26-7.21,7.7-7.21s7.71,3.05,7.71,7.21S105.6,311,101.16,311,93.46,307.92,93.46,303.76Zm11.44,0a3.75,3.75,0,1,0-3.74,4A3.71,3.71,0,0,0,104.9,303.76Z"/><path class="cls-6" d="M124.12,296.83V310.7h-3.23l-6.12-7.39v7.39h-3.85V296.83h3.23l6.12,7.39v-7.39Z"/><path class="cls-6" d="M130.81,299.86v3.05h6.12v3h-6.12v4.76h-3.92V296.83h10.87v3Z"/><path class="cls-6" d="M139.6,296.83h3.92V310.7H139.6Z"/><path class="cls-6" d="M152.38,307h-2.14v3.69h-3.92V296.83h6.33c3.79,0,6.16,2,6.16,5.13a4.6,4.6,0,0,1-2.71,4.38l3,4.36h-4.2Zm0-7.09h-2.18V304h2.18c1.62,0,2.43-.75,2.43-2S154,299.92,152.42,299.92Z"/><path class="cls-6" d="M173.49,310.7l0-7.35-3.56,6h-1.75l-3.54-5.78v7.15H161V296.83h3.23l4.87,8,4.76-8h3.23l0,13.87Z"/><path class="cls-6" d="M191,307.67v3H179.87V296.83h10.87v3h-7v2.34h6.16v2.93h-6.16v2.54Z"/><path class="cls-6" d="M193.18,296.83h6.55c4.6,0,7.75,2.68,7.75,6.93s-3.15,6.94-7.75,6.94h-6.55Zm6.39,10.74a3.81,3.81,0,1,0,0-7.61H197.1v7.61Z"/><path class="cls-6" d="M96.72,326.85H90.87l-1.26,2.81H88.46l4.8-10.5h1.09l4.8,10.5H98Zm-.4-.9-2.52-5.64L91.28,326Z"/><path class="cls-6" d="M102.41,320.12H98.72v-1h8.49v1h-3.69v9.54h-1.11Z"/><path class="cls-6" d="M111.16,320.12h-3.69v-1H116v1h-3.69v9.54h-1.11Z"/><path class="cls-6" d="M125.16,328.7v1h-7.43v-10.5h7.2v1h-6.09v3.73h5.43v.95h-5.43v3.9Z"/><path class="cls-6" d="M136.54,319.16v10.5h-.91l-6.75-8.52v8.52h-1.11v-10.5h.91l6.77,8.52v-8.52Z"/><path class="cls-6" d="M140,319.16h4.28c3.36,0,5.62,2.16,5.62,5.25s-2.26,5.25-5.62,5.25H140Zm4.22,9.54c2.79,0,4.59-1.77,4.59-4.29s-1.8-4.29-4.59-4.29h-3.11v8.58Z"/><path class="cls-6" d="M158.79,326.85h-5.85l-1.26,2.81h-1.16l4.8-10.5h1.1l4.8,10.5h-1.17Zm-.41-.9-2.52-5.64L153.34,326Z"/><path class="cls-6" d="M171.73,319.16v10.5h-.91l-6.75-8.52v8.52H163v-10.5h.91l6.77,8.52v-8.52Z"/><path class="cls-6" d="M174.22,324.41a5.27,5.27,0,0,1,5.5-5.34,5.08,5.08,0,0,1,3.84,1.53l-.7.7a4.18,4.18,0,0,0-3.11-1.24,4.35,4.35,0,1,0,0,8.7,4.16,4.16,0,0,0,3.11-1.26l.7.7a5.11,5.11,0,0,1-3.85,1.55A5.27,5.27,0,0,1,174.22,324.41Z"/><path class="cls-6" d="M193.36,328.7v1h-7.43v-10.5h7.2v1H187v3.73h5.43v.95H187v3.9Z"/><rect class="cls-2" x="94.98" y="341.93" width="96.66" height="9.57" rx="4.27"/><path class="cls-4" d="M86.81,89.63H74.23a1,1,0,0,1-1-1h0a1,1,0,0,1,1-1H86.81a1,1,0,0,1,1,1h0A1,1,0,0,1,86.81,89.63Z"/><path class="cls-4" d="M86.7,93.71H74.11a1,1,0,0,1-1-1h0a1,1,0,0,1,1-1H86.7a1,1,0,0,1,1,1h0A1,1,0,0,1,86.7,93.71Z"/><path class="cls-4" d="M86.59,97.8H74a1,1,0,0,1-1-1h0a1,1,0,0,1,1-1H86.59a1,1,0,0,1,1,1h0A1,1,0,0,1,86.59,97.8Z"/></g><g id="Calendar"><path class="cls-5" d="M282.35,27.54,210.18,16a6.69,6.69,0,0,0-7.66,5.54L190.94,93.67a6.67,6.67,0,0,0,5.54,7.66l2.16.35,20.08,3.22,49.93,8a6.69,6.69,0,0,0,7.66-5.54l11.58-72.17A6.69,6.69,0,0,0,282.35,27.54Z"/><path class="cls-6" d="M200.87,21.58h86.47a0,0,0,0,1,0,0V43.3a5.58,5.58,0,0,1-5.58,5.58H206.69a5.82,5.82,0,0,1-5.82-5.82V21.58a0,0,0,0,1,0,0Z" transform="translate(479.54 108.7) rotate(-170.88)"/><path class="cls-4" d="M234.54,58.74l-4.66,29-6.72-1.08L227,63.05l-5.8-.93.86-5.39Z"/><path class="cls-4" d="M262.31,63.2l-.69,4.35L246.88,90.49l-7.3-1.17,14.19-21.88-9.62-1.54-.76,4.72-6-1,1.64-10.2Z"/><path class="cls-4" d="M231.89,35.13c0,.15,5.82,1.21,13.06,2.38s13.12,2,13.14,1.82S252.27,38.12,245,37,231.91,35,231.89,35.13Z"/><path class="cls-4" d="M282.35,27.54a5.83,5.83,0,0,1,.85.18,6.22,6.22,0,0,1,2.26,1.14,6.69,6.69,0,0,1,2.31,3.37,6.85,6.85,0,0,1,.24,2.63c-.11.94-.29,1.92-.44,3-1.33,8.36-3.24,20.45-5.61,35.39-1.19,7.47-2.49,15.65-3.89,24.43q-.52,3.3-1.07,6.7c-.19,1.14-.34,2.27-.57,3.44a6.84,6.84,0,0,1-4.74,5.12A7.4,7.4,0,0,1,268,113l-7.31-1.17-64.25-10.29a7,7,0,0,1-5.78-6,7.29,7.29,0,0,1,.07-2.19l.34-2.1c.22-1.4.45-2.79.67-4.18q1.33-8.32,2.63-16.39l5-31q1.2-7.41,2.33-14.43c.19-1.17.37-2.33.56-3.48a8.56,8.56,0,0,1,.42-1.73,7.68,7.68,0,0,1,.85-1.57,6.85,6.85,0,0,1,6.05-2.84c8.83,1.36,17,2.72,24.45,3.92l35.37,5.75L279,27l2.49.42.85.16-.85-.11L279,27.05l-9.62-1.5L234,20c-7.46-1.17-15.67-2.53-24.42-3.86a6.44,6.44,0,0,0-5.7,2.69,6.32,6.32,0,0,0-.79,1.47,9.05,9.05,0,0,0-.41,1.65c-.18,1.15-.36,2.32-.55,3.49-.75,4.67-1.52,9.49-2.31,14.43l-5,31q-1.29,8.06-2.63,16.39c-.22,1.39-.44,2.78-.67,4.18a16.08,16.08,0,0,0-.4,4.16,6.49,6.49,0,0,0,5.38,5.56l64.25,10.33,7.31,1.18a7,7,0,0,0,3.49-.1,6.56,6.56,0,0,0,2.91-1.81,6.46,6.46,0,0,0,1.55-3c.22-1.12.38-2.29.57-3.42.37-2.26.73-4.5,1.08-6.69,1.42-8.78,2.75-17,3.95-24.43,2.43-14.92,4.4-27,5.76-35.36.16-1,.35-2,.46-3a6.38,6.38,0,0,0-.22-2.57,6.66,6.66,0,0,0-4.44-4.51c-.27-.09-.49-.12-.63-.16A1.26,1.26,0,0,1,282.35,27.54Z"/><rect class="cls-2" x="223.65" y="18.18" width="19.53" height="5.63" rx="2.72" transform="translate(175.67 248.13) rotate(-80.88)"/><path class="cls-4" d="M231.78,30.62a3.41,3.41,0,0,1-1.48-.9,2.61,2.61,0,0,1-.65-1.84c.08-.77.28-1.72.45-2.73.35-2.06.75-4.48,1.21-7.15l.69-4.22a2.47,2.47,0,0,1,3-2.14,2.45,2.45,0,0,1,1.69,1.13,2.57,2.57,0,0,1,.29,2c-.23,1.46-.45,2.88-.66,4.23-.41,2.67-.78,5.1-1.09,7.17-.08.51-.15,1-.22,1.46a6.82,6.82,0,0,1-.23,1.25,2.69,2.69,0,0,1-1.31,1.46,3.61,3.61,0,0,1-1.7.28s.14.07.45.12a2.77,2.77,0,0,0,1.34-.21A2.8,2.8,0,0,0,235.08,29a7.81,7.81,0,0,0,.29-1.31c.08-.46.16-.94.25-1.45.35-2.07.76-4.48,1.21-7.15.22-1.35.46-2.77.7-4.23a3.12,3.12,0,0,0-.36-2.37,3,3,0,0,0-2.07-1.38,3,3,0,0,0-3.64,2.59l-.66,4.23c-.41,2.68-.77,5.1-1.09,7.17-.14,1-.31,1.92-.37,2.78a2.84,2.84,0,0,0,.8,2,2.59,2.59,0,0,0,1.17.69A1.13,1.13,0,0,0,231.78,30.62Z"/><rect class="cls-2" x="249.71" y="22.37" width="19.53" height="5.63" rx="2.72" transform="translate(193.47 277.38) rotate(-80.88)"/><path class="cls-4" d="M257.84,34.8a3.35,3.35,0,0,1-1.48-.9,2.61,2.61,0,0,1-.65-1.84c.08-.77.29-1.71.45-2.72l1.21-7.15c.22-1.35.45-2.77.69-4.23a2.56,2.56,0,0,1,1-1.73,2.48,2.48,0,0,1,2-.4A2.45,2.45,0,0,1,262.76,17a2.57,2.57,0,0,1,.29,2c-.23,1.46-.45,2.88-.66,4.23-.41,2.68-.78,5.1-1.09,7.17-.08.51-.15,1-.22,1.46a7.1,7.1,0,0,1-.23,1.26,2.65,2.65,0,0,1-1.3,1.45,3.5,3.5,0,0,1-1.71.28,1.17,1.17,0,0,0,.45.12,2.67,2.67,0,0,0,1.35-.2,2.89,2.89,0,0,0,1.5-1.54,7.11,7.11,0,0,0,.29-1.31c.08-.47.17-.95.26-1.46.34-2.06.75-4.48,1.2-7.15.23-1.35.46-2.76.7-4.23a3.14,3.14,0,0,0-.36-2.37,3,3,0,0,0-2.07-1.38,3,3,0,0,0-3.63,2.59c-.23,1.47-.45,2.88-.67,4.23-.4,2.68-.77,5.1-1.09,7.18-.14,1-.31,1.92-.37,2.78a2.8,2.8,0,0,0,.81,2,2.57,2.57,0,0,0,1.16.69C257.67,34.83,257.84,34.82,257.84,34.8Z"/></g><g id="Character_4" data-name="Character 4"><rect class="cls-5" x="264.4" y="331.64" width="166.09" height="66.82" rx="10.02"/><path class="cls-4" d="M420.48,398.46l.29,0c.19,0,.48,0,.86-.07a10.37,10.37,0,0,0,3.22-1,9.84,9.84,0,0,0,4-3.63,9.66,9.66,0,0,0,1.31-3.23,18.28,18.28,0,0,0,.21-4c0-5.68,0-12.62,0-20.68q0-6,0-12.91,0-3.43,0-7.05c0-1.21,0-2.43,0-3.67a10.81,10.81,0,0,0-.5-3.65,9.78,9.78,0,0,0-8.62-6.71c-1.33-.07-2.72,0-4.1,0H399.83l-38.1,0-87.3,0a9.75,9.75,0,0,0-8.92,5.79,9.25,9.25,0,0,0-.75,2.67,20.18,20.18,0,0,0-.1,2.82v27.95q0,5.47,0,10.85v5.35a11.11,11.11,0,0,0,.85,5.07,9.8,9.8,0,0,0,7.83,5.75c.82.07,1.68.07,2.54.06h7.61l71.3,0,48.07.09,13.07,0,3.4,0,1.16,0-1.16,0-3.4,0-13.07.05-48.07.08-71.3.06h-7.61c-.85,0-1.71,0-2.6-.07a10.31,10.31,0,0,1-8.23-6,11.83,11.83,0,0,1-.89-5.28v-16.2c0-7.3,0-14.74,0-22.28v-5.67a21.65,21.65,0,0,1,.1-2.89,10.24,10.24,0,0,1,.79-2.81,10.29,10.29,0,0,1,9.4-6.1l87.3,0,38.1,0,17.26,0c1.39,0,2.75,0,4.13,0a10.18,10.18,0,0,1,8.94,7,11,11,0,0,1,.51,3.76v3.67q0,3.62,0,7.05,0,6.85,0,12.91c0,8.06,0,15-.05,20.68a18.76,18.76,0,0,1-.23,4,9.85,9.85,0,0,1-1.36,3.27,10,10,0,0,1-7.36,4.58C420.87,398.47,420.48,398.46,420.48,398.46Z"/><path class="cls-6" d="M406.89,379.48a12.29,12.29,0,1,1,12.28-12.29A12.3,12.3,0,0,1,406.89,379.48Zm0-22.57a10.29,10.29,0,1,0,10.28,10.28A10.3,10.3,0,0,0,406.89,356.91Z"/><path class="cls-2" d="M380.83,375.58H338.4a6.79,6.79,0,0,1-6.8-6.8h0a6.79,6.79,0,0,1,6.8-6.79h42.43a6.79,6.79,0,0,1,6.79,6.79h0A6.79,6.79,0,0,1,380.83,375.58Z"/><circle class="cls-5" cx="299.86" cy="366.97" r="25.49" transform="translate(-100.59 113.55) rotate(-18.42)"/><path class="cls-4" d="M325.3,368.63s0-.15,0-.42v-2.1c0-.33-.06-.69-.09-1.08a19.91,19.91,0,0,0-.37-2.65,24.19,24.19,0,0,0-2.38-6.93,25.45,25.45,0,0,0-16.31-13,23.06,23.06,0,0,0-3.17-.58c-.54-.05-1.09-.14-1.64-.17l-1.68,0c-.28,0-.56,0-.85,0l-.85.07c-.57.06-1.14.09-1.71.17a26.19,26.19,0,0,0-3.44.77,27.46,27.46,0,0,0-3.38,1.23c-.56.26-1.09.56-1.64.84a15.16,15.16,0,0,0-1.59.95,28.16,28.16,0,0,0-3,2.25,28.94,28.94,0,0,0-2.66,2.76,24.63,24.63,0,0,0-4.07,6.72,27.51,27.51,0,0,0-1.82,7.88,27,27,0,0,0,.79,8.05,24.22,24.22,0,0,0,3.15,7.2,29.19,29.19,0,0,0,2.28,3.08,30.51,30.51,0,0,0,2.71,2.63,14.76,14.76,0,0,0,1.46,1.15c.5.34,1,.71,1.51,1a27.77,27.77,0,0,0,3.2,1.66,26.67,26.67,0,0,0,3.3,1.21c.56.15,1.13.26,1.68.39l.84.18c.27.06.56.07.84.11l1.66.2c.55,0,1.11,0,1.65,0a22.78,22.78,0,0,0,3.22-.16,25.52,25.52,0,0,0,17.86-10.78,24.57,24.57,0,0,0,3.26-6.56,19.26,19.26,0,0,0,.7-2.59c.08-.38.18-.73.23-1.05s.08-.62.11-.88c.07-.52.13-.92.16-1.21s.07-.4.07-.4,0,.14,0,.41-.06.69-.12,1.21c0,.26-.06.56-.09.89s-.14.67-.21,1.06a19.36,19.36,0,0,1-.67,2.61,24.09,24.09,0,0,1-3.23,6.63,25.59,25.59,0,0,1-18,11,25.06,25.06,0,0,1-3.26.17c-.55,0-1.11,0-1.67,0l-1.69-.19c-.28,0-.57-.06-.85-.11l-.85-.19c-.56-.13-1.14-.23-1.71-.39a26.35,26.35,0,0,1-3.35-1.21,27.13,27.13,0,0,1-3.25-1.69c-.52-.32-1-.7-1.54-1a14.79,14.79,0,0,1-1.48-1.16,29.87,29.87,0,0,1-2.74-2.66,28.88,28.88,0,0,1-2.33-3.13,24.88,24.88,0,0,1-3.21-7.31,25.48,25.48,0,0,1,1.06-16.17,24.62,24.62,0,0,1,4.13-6.83,29.8,29.8,0,0,1,2.7-2.8,30.21,30.21,0,0,1,3.08-2.28,13.15,13.15,0,0,1,1.61-1c.56-.28,1.1-.59,1.66-.85a26.77,26.77,0,0,1,3.44-1.24,29,29,0,0,1,3.48-.78c.59-.08,1.17-.1,1.75-.16l.86-.07c.29,0,.57,0,.86,0l1.7,0c.56,0,1.11.12,1.66.17a23.65,23.65,0,0,1,3.21.6,25.59,25.59,0,0,1,16.43,13.22,24.21,24.21,0,0,1,2.34,7,18.11,18.11,0,0,1,.32,2.67c0,.39.07.75.08,1.08l0,.9c0,.52,0,.92,0,1.21S325.3,368.63,325.3,368.63Z"/><path class="cls-6" d="M278.32,380.18l11.23-3.4,18.24,2.81L320,382.32a25.09,25.09,0,0,1-20.22,9.93,25.56,25.56,0,0,1-16.27-6A23.81,23.81,0,0,1,278.32,380.18Z"/><path class="cls-7" d="M314.31,366.45c-.06-3.43-.75-10.47-1.45-16.84a13.23,13.23,0,0,0-13.53-11.77l-.68,0c-7.37.64-10.94,7.26-10.09,14.6l1.6,25.52,10.2,6.5,7.08-3-.08-6.65S314.43,373.54,314.31,366.45Z"/><path class="cls-4" d="M310.39,356.46a1,1,0,0,1-.95,1.05,1,1,0,0,1-1.07-.88,1,1,0,0,1,.95-1.05A1,1,0,0,1,310.39,356.46Z"/><path class="cls-4" d="M311.53,352.74c-.12.14-.91-.41-2-.37s-1.87.6-2,.47.06-.3.4-.56a2.68,2.68,0,0,1,1.59-.54,2.65,2.65,0,0,1,1.6.46C311.47,352.45,311.59,352.68,311.53,352.74Z"/><path class="cls-4" d="M300.36,356.46a1,1,0,0,1-.94,1.05,1,1,0,0,1-1.08-.88,1,1,0,0,1,1-1.05A1,1,0,0,1,300.36,356.46Z"/><path class="cls-4" d="M300.66,352.75c-.11.15-1-.31-2-.16s-1.8.81-1.94.69,0-.3.34-.6a2.77,2.77,0,0,1,1.53-.71,2.72,2.72,0,0,1,1.63.28C300.57,352.46,300.71,352.68,300.66,352.75Z"/><path class="cls-4" d="M304.92,361.6a7.06,7.06,0,0,1,1.76-.37c.28,0,.54-.1.58-.29a1.46,1.46,0,0,0-.21-.82l-.89-2.1a36.38,36.38,0,0,1-2-5.49,36.08,36.08,0,0,1,2.45,5.32c.3.73.58,1.44.85,2.11a1.57,1.57,0,0,1,.18,1.09.72.72,0,0,1-.45.42,2.2,2.2,0,0,1-.47.08A7.08,7.08,0,0,1,304.92,361.6Z"/><path class="cls-4" d="M300.67,348.05c-.1.29-1.19.19-2.46.38s-2.3.57-2.48.31.09-.41.5-.71a4.34,4.34,0,0,1,3.77-.53C300.47,347.68,300.72,347.9,300.67,348.05Z"/><path class="cls-4" d="M311.23,348.53c-.19.26-.94,0-1.85,0s-1.66.21-1.84,0,0-.38.36-.62a2.48,2.48,0,0,1,1.48-.45,2.56,2.56,0,0,1,1.49.45C311.2,348.16,311.31,348.41,311.23,348.53Z"/><path class="cls-7" d="M289.3,357.7c-.13-.05-4.92-1.3-4.62,3.54s5.09,3.55,5.09,3.41S289.3,357.7,289.3,357.7Z"/><path class="cls-8" d="M288.18,362.9s-.08.07-.22.14a.85.85,0,0,1-.63,0,2.09,2.09,0,0,1-1.08-1.81,2.68,2.68,0,0,1,.17-1.22,1,1,0,0,1,.59-.69.44.44,0,0,1,.51.2c.08.13.05.23.08.24s.1-.09,0-.29a.51.51,0,0,0-.2-.29.65.65,0,0,0-.48-.09,1.15,1.15,0,0,0-.83.8,2.79,2.79,0,0,0-.21,1.37,2.2,2.2,0,0,0,1.35,2,1,1,0,0,0,.77-.18C288.18,363,288.2,362.91,288.18,362.9Z"/><path class="cls-4" d="M313.4,341.31a2.49,2.49,0,0,0-1.91-1.93c0-.14-1-.64-1.81-1.21s-1-1.92-1.72-1.25a2.27,2.27,0,0,0-3.15-1.94c0-.86-1.23-1.15-2.06-1.36s-1.15-.34-1.55.42a3.29,3.29,0,0,0-5.14-.27,4.21,4.21,0,0,0-5.05,2.41,4,4,0,0,0-3.44,2.85c-1,.11-1.26.91-1.67,1.84s-1,2-.36,2.8a2.16,2.16,0,0,0-.35,3.43,2.07,2.07,0,0,0-.69.59,2.26,2.26,0,0,0-.57,3.17,2.25,2.25,0,0,0,1.51,4c-.78,1.14.24,2.66.83,3,0,0,2-.85,2.31.62h0a.91.91,0,0,0,1.23.91A3.19,3.19,0,0,0,291,358a6.81,6.81,0,0,0,1-1.95,1.68,1.68,0,0,0-.72-1.89,2.52,2.52,0,0,0,1.48-2,7.5,7.5,0,0,0-.23-2.62c-.26-1.28-.53-2.55-.79-3.83a4.84,4.84,0,0,0,4.1-2.86,2.78,2.78,0,0,0,4-1.11,3.62,3.62,0,0,0,4.46,2.11c-.17,1,1.66,1.89,2.66,2.13a3.61,3.61,0,0,0,2.21-.5s1.72,1,2.64.56,2.1-1.6,1.47-2.54A4.5,4.5,0,0,0,313.4,341.31Z"/><path class="cls-9" d="M304.17,334.86a1.65,1.65,0,0,0-.55-.3,1.06,1.06,0,0,0-.71.06,1,1,0,0,0-.57.72l-.06.28-.15-.25a1.76,1.76,0,0,0-1.52-.79,1.7,1.7,0,0,0-1.56,1.26l-.09.32-.21-.26a2.17,2.17,0,0,0-1.69-.76,2.08,2.08,0,0,0-1.7,1,2,2,0,0,0-.28.79l0,.2-.19,0a2.08,2.08,0,0,0-2.28,1.15,2.12,2.12,0,0,0,.4,2.26l.2.19-.27.06a2.28,2.28,0,0,0-1.43,1,2.23,2.23,0,0,0-.36,1.29,3.48,3.48,0,0,0,.28,1.17s-.09-.07-.19-.26a2.25,2.25,0,0,1-.26-.9,2.3,2.3,0,0,1,.33-1.43,2.52,2.52,0,0,1,1.57-1.13l-.07.25a2.35,2.35,0,0,1,2.16-4l-.22.15a2.21,2.21,0,0,1,.33-.93,2.4,2.4,0,0,1,2-1.18,2.48,2.48,0,0,1,2,.9l-.3.06a2,2,0,0,1,1.89-1.47,2,2,0,0,1,1.72,1l-.21,0a1.26,1.26,0,0,1,.72-.84,1.21,1.21,0,0,1,.82,0,1.16,1.16,0,0,1,.42.27C304.16,334.8,304.18,334.85,304.17,334.86Z"/><path class="cls-4" d="M314.11,362.57a1.53,1.53,0,0,0-2.24.74,1.89,1.89,0,0,0-3.35.58,1.55,1.55,0,0,0-2.59-.43,1.2,1.2,0,0,0-1.31-.53,1.2,1.2,0,0,0-2-1.07,1.94,1.94,0,0,0-2.88-.47,1.08,1.08,0,0,0-2.09.07,1.75,1.75,0,0,0-2-.52,1.18,1.18,0,0,0-1.46-1.08c.17-.6-.71-.87-1.16-1.3a8.11,8.11,0,0,0-.55-.62c-.22-.18-.59-.22-.73,0a1,1,0,0,0-1.89-.65,3,3,0,0,0-.16.85c-.14.93-.66,2,0,2.69.12.12.27.21.32.37s-.18.53-.2.81.28.58.42.88a3.06,3.06,0,0,1,0,1.44c0,.49.24,1.1.73,1a1.71,1.71,0,0,0,.53,2.12,1.68,1.68,0,0,0,1,2.19.84.84,0,0,0-.06,1.12,2.4,2.4,0,0,0,1,.72.7.7,0,0,0-.17,1,1.64,1.64,0,0,0,.95.59.69.69,0,0,1,.42.22c.18.25-.06.59,0,.9s.73.59.92,1-.05.91.25,1.19.51.15.77.24c.45.16.65.68.94,1.06a4.1,4.1,0,0,0,2.35,1.27c.45.11.9.21,1.36.29.91.17,1.82.28,2.74.39.45.06,1,.06,1.25-.33a1.58,1.58,0,0,0,2.52-.29,3.82,3.82,0,0,0,2.45-.47l.8-.35c.8-.35,1.69-.8,1.93-1.64a1.75,1.75,0,0,0,1.26-2.41c.37.1.72-.26.78-.64a3.32,3.32,0,0,0-.14-1.12c-.28-1.52.53-3.07.32-4.6-.15-1.07-.79-2.13-.48-3.17a2.06,2.06,0,0,0,.15-.64c0-.22-.22-.45-.43-.39a1,1,0,0,0-1-1.31"/><path class="cls-5" d="M301.31,362.69c.18,0,.22,1.17,1.25,2s2.3.64,2.31.81-.27.24-.81.27a3,3,0,0,1-1.92-.61,2.57,2.57,0,0,1-1-1.66C301.11,363,301.23,362.69,301.31,362.69Z"/><path class="cls-9" d="M294.81,370.78a10.76,10.76,0,0,1-.45-2.51,10.55,10.55,0,0,1,.35-2.52,2.16,2.16,0,0,0-.3.7,5.8,5.8,0,0,0-.24,1.83,5.71,5.71,0,0,0,.32,1.81A2,2,0,0,0,294.81,370.78Z"/><path class="cls-9" d="M293.7,369.07a4.37,4.37,0,0,1-.27-.54,3.45,3.45,0,0,1-.12-1.43c.09-1.14.4-2,.35-2.05a4.81,4.81,0,0,0-.54,2,3.09,3.09,0,0,0,.18,1.49C293.47,369,293.69,369.09,293.7,369.07Z"/><path class="cls-9" d="M292.51,368.09A7,7,0,0,1,292,366a7.26,7.26,0,0,1,.33-2.15,1.56,1.56,0,0,0-.3.58,4.18,4.18,0,0,0-.22,1.57,4.13,4.13,0,0,0,.35,1.55A1.57,1.57,0,0,0,292.51,368.09Z"/><path class="cls-9" d="M312.24,375.34a1.33,1.33,0,0,0,.68-.44,3.83,3.83,0,0,0,.84-1.73,5.63,5.63,0,0,0,.16-1.92,2.22,2.22,0,0,0-.15-.78,9.52,9.52,0,0,1-.19,2.65,4.3,4.3,0,0,1-.76,1.69A4.71,4.71,0,0,1,312.24,375.34Z"/><path class="cls-9" d="M311.21,375.08a1.51,1.51,0,0,0,.55-.39,3.67,3.67,0,0,0,.89-1.34,3.81,3.81,0,0,0,.26-1.59,1.49,1.49,0,0,0-.14-.65,5.84,5.84,0,0,0,0,.66,4.38,4.38,0,0,1-1.11,2.83C311.39,374.9,311.19,375.05,311.21,375.08Z"/><path class="cls-9" d="M313,345.34a9.35,9.35,0,0,0-4.79-3.47c-5.87-1.74-14.1-2.4-22.79,6.17l-1.27.57a21.36,21.36,0,0,1,.18-5.08c.3-1.44,2.93-9.85,12.32-10.73C296.67,332.8,311,330.46,313,345.34Z"/><g class="cls-10"><path d="M313,345.34a9.35,9.35,0,0,0-4.79-3.47c-5.87-1.74-14.1-2.4-22.79,6.17l-1.27.57a21.36,21.36,0,0,1,.18-5.08c.3-1.44,2.93-9.85,12.32-10.73C296.67,332.8,311,330.46,313,345.34Z"/></g><path class="cls-9" d="M285.44,348c3.56-3.91,8.16-6.16,13-8s12.45-3,17.59-3.27a10.83,10.83,0,0,1,4.57.46,4.1,4.1,0,0,1,2.76,3.4c.09,1.93-3.75,4.1-5.52,4.9s-5.36,2.2-5.36,2.2-1-4.39-4.43-5.64C300.83,339.56,285.17,348.18,285.44,348Z"/><path class="cls-4" d="M313.45,342.5a2.77,2.77,0,0,0-3-1.73,1.05,1.05,0,0,0,0-1.26,2,2,0,0,0-1.15-.67,3.51,3.51,0,0,0-3.89,2,3.37,3.37,0,0,0-3.15-.86,2.6,2.6,0,0,0-2.15,2.25,2.12,2.12,0,0,0,1.26,1.93,3.19,3.19,0,0,0,2.86-.31,3,3,0,0,0,2,1.83,3,3,0,0,0,2.65-.59,2.67,2.67,0,0,0,4.57-2.62Z"/></g><g id="Character_3" data-name="Character 3"><rect class="cls-5" x="260.86" y="240.03" width="169.63" height="68.24" rx="10.02"/><path class="cls-4" d="M420.48,308.27l.3,0c.19,0,.49,0,.88-.07a10,10,0,0,0,8.57-8.12,22.5,22.5,0,0,0,.16-4.08c0-5.81,0-12.9,0-21.14,0-4.12,0-8.53,0-13.2q0-3.51,0-7.21c0-1.23,0-2.48,0-3.75a10.7,10.7,0,0,0-.51-3.72,9.82,9.82,0,0,0-5-5.72,9.63,9.63,0,0,0-3.88-1c-1.37,0-2.79,0-4.2,0l-17.65,0-38.94,0-89.23,0a10.91,10.91,0,0,0-2.85.42,9.82,9.82,0,0,0-4.71,3.15,10.66,10.66,0,0,0-1.46,2.45,10.9,10.9,0,0,0-.7,2.75c-.07.94,0,1.92-.05,2.89v39.66c0,1.83,0,3.66,0,5.47a11.17,11.17,0,0,0,.87,5.18,9.78,9.78,0,0,0,8.08,5.73c3.47.08,7,0,10.39,0l72.88.06,49.13.08,13.36.05,3.47,0c.79,0,1.19,0,1.19,0l-1.19,0-3.47,0-13.36.05-49.13.09-72.88.05c-3.43,0-6.88.05-10.43,0a10.24,10.24,0,0,1-8.49-6,11.75,11.75,0,0,1-.92-5.39V280.52q0-11.19,0-22.77V252c0-1,0-1.93.06-2.94a11.22,11.22,0,0,1,.73-2.9,11.44,11.44,0,0,1,1.54-2.58,11.27,11.27,0,0,1,2.23-2,11,11,0,0,1,2.73-1.3,11.28,11.28,0,0,1,3-.44l89.23,0,38.94,0,17.65,0c1.42,0,2.81,0,4.21,0a10.15,10.15,0,0,1,9.23,7,11.27,11.27,0,0,1,.52,3.84v3.75q0,3.71,0,7.21c0,4.67,0,9.08,0,13.2,0,8.24,0,15.33-.05,21.14a23.9,23.9,0,0,1-.18,4.11,10.2,10.2,0,0,1-1.29,3.37,10,10,0,0,1-4.13,3.8,9.88,9.88,0,0,1-3.33,1A9.5,9.5,0,0,1,420.48,308.27Z"/><path class="cls-6" d="M405.56,287.84h0a11.54,11.54,0,0,1-10.67-12.32h0a11.53,11.53,0,0,1,12.32-10.67h0a11.53,11.53,0,0,1,10.67,12.32h0A11.53,11.53,0,0,1,405.56,287.84Z"/><polygon class="cls-5" points="405.68 282.4 398.77 277.02 400.65 274.61 405.28 278.21 411.92 270.63 414.22 272.65 405.68 282.4"/><path class="cls-2" d="M379.77,284.91H336.43a6.94,6.94,0,0,1-6.94-6.94h0a7,7,0,0,1,6.94-7h43.34a7,7,0,0,1,6.94,7h0A6.94,6.94,0,0,1,379.77,284.91Z"/><circle class="cls-5" cx="297.01" cy="274.07" r="26.03" transform="translate(-106.3 248.16) rotate(-39.02)"/><path class="cls-4" d="M273.89,285.73s.08.12.22.36l.63,1.08.45.8c.18.28.4.57.63.9a19.24,19.24,0,0,0,1.68,2.18,24.93,24.93,0,0,0,5.67,4.95,26.1,26.1,0,0,0,9.21,3.7,25.82,25.82,0,0,0,12-.49,23.25,23.25,0,0,0,3.12-1.11c.51-.23,1-.43,1.55-.69l1.5-.84c.25-.14.52-.27.76-.43l.72-.51c.47-.34,1-.66,1.44-1a26.62,26.62,0,0,0,2.66-2.45,27.18,27.18,0,0,0,2.38-2.83c.36-.51.68-1.05,1-1.58a14.26,14.26,0,0,0,.93-1.67,29.7,29.7,0,0,0,1.54-3.55,30.46,30.46,0,0,0,.95-3.82,25.06,25.06,0,0,0,.17-8.07,25.84,25.84,0,0,0-7.24-14.71l-1.48-1.42-1.6-1.25a5.89,5.89,0,0,0-.83-.58l-.85-.54-.85-.54-.89-.45a28,28,0,0,0-3.61-1.58,30.3,30.3,0,0,0-3.75-.95,15.39,15.39,0,0,0-1.89-.28c-.63,0-1.25-.12-1.88-.15a26.68,26.68,0,0,0-3.7.16A27.87,27.87,0,0,0,291,249c-.57.15-1.13.35-1.69.52l-.84.26c-.28.09-.54.22-.8.33l-1.59.68c-.51.25-1,.55-1.49.81a22.06,22.06,0,0,0-2.78,1.8,25.63,25.63,0,0,0-7.68,9.19,26,26,0,0,0-2.69,9.55,24.94,24.94,0,0,0,.47,7.51,17.22,17.22,0,0,0,.7,2.66c.12.38.21.74.33,1.06l.36.84c.2.5.36.88.47,1.15a3.93,3.93,0,0,1,.15.4s-.07-.13-.18-.38-.3-.65-.52-1.14l-.37-.84c-.12-.32-.22-.67-.35-1.05a18.64,18.64,0,0,1-.74-2.67,25,25,0,0,1-.53-7.55,26.26,26.26,0,0,1,10.39-19,23.74,23.74,0,0,1,2.81-1.82c.5-.27,1-.57,1.51-.82l1.6-.7c.27-.11.53-.24.81-.34l.85-.26c.57-.18,1.13-.38,1.72-.53a26.55,26.55,0,0,1,3.6-.64,29.17,29.17,0,0,1,3.75-.17c.64,0,1.27.11,1.91.16a13.93,13.93,0,0,1,1.91.27,30.79,30.79,0,0,1,3.81,1,30.42,30.42,0,0,1,3.67,1.6l.9.46.86.54.86.55a6.05,6.05,0,0,1,.84.59l1.62,1.27,1.51,1.43a26.26,26.26,0,0,1,7.35,14.93,25.46,25.46,0,0,1-.18,8.18,31,31,0,0,1-1,3.88,29,29,0,0,1-1.57,3.6,13.68,13.68,0,0,1-.94,1.68c-.35.54-.68,1.09-1.05,1.61a26.79,26.79,0,0,1-2.42,2.87,27.34,27.34,0,0,1-2.7,2.47c-.47.37-1,.69-1.46,1l-.73.51c-.25.17-.51.29-.77.44l-1.52.85c-.52.26-1.06.46-1.57.69a24.33,24.33,0,0,1-3.16,1.12,26.28,26.28,0,0,1-21.38-3.35,24.84,24.84,0,0,1-5.67-5,19,19,0,0,1-1.66-2.21c-.22-.34-.45-.64-.62-.92l-.44-.81c-.25-.48-.45-.84-.59-1.1Z"/><path class="cls-6" d="M281,294.43s1.24-.41,5.53-1.73,18.33.65,18.33.65l8,1.66s-5.72,5.88-16.71,5.13S281,294.43,281,294.43Z"/><path class="cls-4" d="M311,261a3.29,3.29,0,0,0,1.16-6.44,3.42,3.42,0,0,0-3.19-5.66,4.09,4.09,0,0,0-6.29-3.13,4.6,4.6,0,0,0-5.67.09,3.28,3.28,0,0,0-2.69,5.66"/><path class="cls-11" d="M305.66,293.88l-.13-5.78s7.74-1.43,7.57-8.91c-.08-3.62-.85-11.06-1.63-17.78a14,14,0,0,0-14.35-12.34l-.72,0c-7.77.73-11.5,7.73-10.56,15.48L287,292.71s9.83,5.21,12,4.46A60.29,60.29,0,0,0,305.66,293.88Z"/><path class="cls-12" d="M305.53,288.1a17.36,17.36,0,0,1-9.55-2.54s2.11,5.48,9.55,4.54Z"/><path class="cls-4" d="M308.44,268.87a1.07,1.07,0,0,1-1,1.11,1,1,0,0,1-1.13-.92,1.08,1.08,0,0,1,1-1.12A1,1,0,0,1,308.44,268.87Z"/><path class="cls-4" d="M310,265.13c-.13.15-1-.42-2.11-.38s-2,.65-2.1.51.06-.32.42-.6a3,3,0,0,1,1.68-.58,2.82,2.82,0,0,1,1.68.48C309.92,264.82,310.05,265.07,310,265.13Z"/><path class="cls-4" d="M298.07,269a1.06,1.06,0,0,1-1,1.11,1,1,0,0,1-1.13-.92,1.07,1.07,0,0,1,1-1.12A1,1,0,0,1,298.07,269Z"/><path class="cls-4" d="M298.69,265.74c-.13.15-1-.42-2.11-.38s-2,.65-2.1.51.06-.32.42-.6a2.91,2.91,0,0,1,1.68-.58,2.82,2.82,0,0,1,1.68.48C298.62,265.43,298.75,265.68,298.69,265.74Z"/><path class="cls-4" d="M303.16,274.13a6.91,6.91,0,0,1,1.86-.4c.29-.05.57-.11.61-.32a1.48,1.48,0,0,0-.23-.86l-.94-2.21a38.11,38.11,0,0,1-2.16-5.78,38.7,38.7,0,0,1,2.62,5.6c.31.77.62,1.51.91,2.22a1.75,1.75,0,0,1,.19,1.15.71.71,0,0,1-.47.44,1.66,1.66,0,0,1-.5.09A8.06,8.06,0,0,1,303.16,274.13Z"/><path class="cls-4" d="M298.9,261.81c-.14.3-1.14,0-2.35,0s-2.23.24-2.35-.06c-.06-.14.15-.41.58-.66a3.61,3.61,0,0,1,1.81-.44,3.48,3.48,0,0,1,1.77.47C298.78,261.4,299,261.67,298.9,261.81Z"/><path class="cls-4" d="M310,261.06c-.24.27-1.2,0-2.34.06s-2.1.24-2.33,0,0-.4.45-.66a3.67,3.67,0,0,1,1.88-.49,3.53,3.53,0,0,1,1.88.46C310,260.66,310.09,260.93,310,261.06Z"/><path class="cls-11" d="M287.3,271.82a2,2,0,0,0-2.26-1.88c-1.39.18-2.92,1-2.73,3.91.34,5.11,5.41,3.72,5.4,3.57S287.46,274,287.3,271.82Z"/><path class="cls-12" d="M286.47,275.57s-.08.07-.23.15a.87.87,0,0,1-.66.06,2.19,2.19,0,0,1-1.15-1.91,2.84,2.84,0,0,1,.16-1.29,1,1,0,0,1,.62-.73.47.47,0,0,1,.55.21c.07.14.05.24.08.25s.1-.1.05-.31a.57.57,0,0,0-.23-.3.69.69,0,0,0-.5-.1,1.26,1.26,0,0,0-.88.86,3.06,3.06,0,0,0-.21,1.44,2.3,2.3,0,0,0,1.45,2.12.94.94,0,0,0,.8-.19C286.47,275.7,286.49,275.58,286.47,275.57Z"/><path class="cls-4" d="M306.85,250.92a2.08,2.08,0,0,0-.2-.36,3.27,3.27,0,0,0-2.59-1.36,13.37,13.37,0,0,0-1.82-.69,4.46,4.46,0,0,0-7.58-.06l-.63.13a4.55,4.55,0,0,0-6.85,2.19,3.31,3.31,0,0,0-3.55,4.94,3.12,3.12,0,0,0-1.64,2.56,1.82,1.82,0,0,0,1.92,1.79,66.1,66.1,0,0,0,.48,7.88c.16,1.79,2.47,2.78,2.67,4,1,6.18,2.93,2.68,3.26-10.2l.38-.34c.26-.26.31-.57.54-.85s.78-.25,1.21-.22a3.27,3.27,0,0,0,3.31-2.46,1.38,1.38,0,0,0,1.85.11,7.35,7.35,0,0,0,1.34-1.54,2.12,2.12,0,0,1,1.73-.94,4.89,4.89,0,0,0,1.12.2c.67-.08,1-.88,1.05-1.55a3,3,0,0,1,.46-1.62,4,4,0,0,1,1.29-.42l.76.09a1.45,1.45,0,0,0,.36,0c.15.05.31.1.47.17,2.3,1,4.44,5.64,4.44,5.64A9,9,0,0,0,306.85,250.92Z"/><path class="cls-5" d="M291.5,250.14a.44.44,0,0,1,.05-.14,2.05,2.05,0,0,1,.22-.37,3.64,3.64,0,0,1,1.14-1.1,3.75,3.75,0,0,1,2.31-.57,4,4,0,0,1,2.64,1.33h-.16a5.83,5.83,0,0,1,1.18-1,4.4,4.4,0,0,1,3.43-.57,3.39,3.39,0,0,1,2.24,1.73,3.07,3.07,0,0,1,.3,1.91,2.17,2.17,0,0,1-.15.5l-.08.16s.09-.23.15-.68a3.1,3.1,0,0,0-.35-1.82,3.3,3.3,0,0,0-2.16-1.61,4.27,4.27,0,0,0-3.27.56,5.41,5.41,0,0,0-1.13.92l-.08.08-.08-.08a3.78,3.78,0,0,0-2.5-1.29,3.67,3.67,0,0,0-2.22.5,4,4,0,0,0-1.15,1C291.61,250,291.52,250.14,291.5,250.14Z"/><path class="cls-5" d="M283,256l0-.07.15-.21a2.92,2.92,0,0,1,.78-.61,3.34,3.34,0,0,1,1.5-.37,2.91,2.91,0,0,1,1.93.64l-.14.05a4.06,4.06,0,0,1,2-2.64,5,5,0,0,1,1.82-.62,6.26,6.26,0,0,1,2,.07,10.16,10.16,0,0,1,3.48,1.49l-.14.05a4.56,4.56,0,0,1,2.22-2.5,4.37,4.37,0,0,1,2.61-.41,4.45,4.45,0,0,1,1.64.6,2.57,2.57,0,0,1,.38.27l.12.1s-.18-.12-.53-.31a4.56,4.56,0,0,0-1.62-.53,4.24,4.24,0,0,0-2.52.44,4.42,4.42,0,0,0-2.12,2.41l0,.12-.1-.07a10,10,0,0,0-3.42-1.45,6.18,6.18,0,0,0-2-.08,4.86,4.86,0,0,0-1.74.6,3.87,3.87,0,0,0-2,2.49l0,.14-.11-.09a2.89,2.89,0,0,0-1.82-.64,3.28,3.28,0,0,0-1.46.33A3.6,3.6,0,0,0,283,256Z"/><path class="cls-9" d="M303.35,252.19l-.08.2a3.32,3.32,0,0,0-.17.6c-.06.26-.12.59-.19,1a3.11,3.11,0,0,1-.46,1.28,1,1,0,0,1-.7.41,4.22,4.22,0,0,1-.87,0,1.83,1.83,0,0,0-.87.09,2.45,2.45,0,0,0-.73.61c-.21.25-.42.53-.64.81a3.59,3.59,0,0,1-.73.85,2.41,2.41,0,0,1-1.11.41,1.63,1.63,0,0,1-.62,0,.85.85,0,0,1-.56-.35l.18,0a2.89,2.89,0,0,1-.31.88,2.83,2.83,0,0,1-.6.74,3.5,3.5,0,0,1-1.76.82,4.53,4.53,0,0,1-.82.06,1.65,1.65,0,0,0-.74,0,1,1,0,0,0-.54.46,4.72,4.72,0,0,1-.5.59,4,4,0,0,1-2.59,1.33,3.69,3.69,0,0,1-2.44-.95,3.87,3.87,0,0,1-1.19-1.91l.09.05a2,2,0,0,1-1.67-.34,1.86,1.86,0,0,1-.71-1.08,1.72,1.72,0,0,1,0-.81,1.65,1.65,0,0,1,.05-.21l0-.06a2.14,2.14,0,0,0,0,1.06,1.8,1.8,0,0,0,.69,1,1.91,1.91,0,0,0,1.58.29h.07V260a3.73,3.73,0,0,0,1.16,1.81,3.54,3.54,0,0,0,2.32.88,3.84,3.84,0,0,0,2.45-1.27,5.17,5.17,0,0,0,.48-.57,1.25,1.25,0,0,1,.64-.53,1.2,1.2,0,0,1,.42-.07l.4,0a4,4,0,0,0,.77-.06,3.42,3.42,0,0,0,1.67-.76,3,3,0,0,0,.55-.69,3.15,3.15,0,0,0,.29-.81l0-.24.14.2a1,1,0,0,0,1,.28,2.1,2.1,0,0,0,1-.37,3.21,3.21,0,0,0,.71-.8c.22-.28.42-.56.65-.82a2.43,2.43,0,0,1,.79-.64,2,2,0,0,1,.95-.1,3.47,3.47,0,0,0,.84,0,.88.88,0,0,0,.62-.34,3.17,3.17,0,0,0,.46-1.22c.08-.38.15-.71.22-1a3.74,3.74,0,0,1,.2-.6A.74.74,0,0,1,303.35,252.19Z"/><path class="cls-12" d="M299.65,276.26a2.8,2.8,0,0,0,1.18,3.42,1.9,1.9,0,0,0,1.42.14,1.87,1.87,0,0,0,1.29-1.08,3.73,3.73,0,0,0,.3-1.71C302.66,276.78,300.82,276.51,299.65,276.26Z"/><path class="cls-4" d="M303.37,279.09s-.08.14-.3.31a2.14,2.14,0,0,1-1.09.43,2.32,2.32,0,0,1-1.67-.5,2.68,2.68,0,0,1-1-1.88,3,3,0,0,1,.1-1.13l0-.09h.1l3,.57a9.09,9.09,0,0,1,1.2.28,6.8,6.8,0,0,1-1.22-.15c-.76-.11-1.82-.29-3-.49l.12-.08a3.11,3.11,0,0,0-.09,1.06,2.51,2.51,0,0,0,.89,1.75,2.23,2.23,0,0,0,1.53.5,2.32,2.32,0,0,0,1.07-.34C303.25,279.19,303.35,279.08,303.37,279.09Z"/></g><g id="Character_2" data-name="Character 2"><rect class="cls-5" x="262.27" y="151.13" width="165.97" height="66.77" rx="10.02"/><path class="cls-4" d="M418.23,217.9l.29,0c.19,0,.48,0,.86-.07a10.1,10.1,0,0,0,3.22-1,9.84,9.84,0,0,0,4-3.63,9.52,9.52,0,0,0,1.31-3.22,18.22,18.22,0,0,0,.21-4c0-5.68,0-12.62,0-20.67,0-4,0-8.34,0-12.9,0-2.29,0-4.64,0-7.05v-3.66a11,11,0,0,0-.5-3.65,9.85,9.85,0,0,0-4.85-5.66,9.73,9.73,0,0,0-3.77-1c-1.32-.07-2.71,0-4.09,0H397.6l-38.07,0-87.23,0a9.77,9.77,0,0,0-8.92,5.78,9.57,9.57,0,0,0-.75,2.67,20.09,20.09,0,0,0-.1,2.81v27.93c0,3.65,0,7.27,0,10.85v5.34a11.24,11.24,0,0,0,.84,5.07,9.83,9.83,0,0,0,7.83,5.75,23.68,23.68,0,0,0,2.54.06h7.61l71.25.05,48,.09,13.06,0,3.39,0,1.16,0s-.39,0-1.16,0l-3.39,0-13.06.05-48,.08-71.25.06h-7.61a25.38,25.38,0,0,1-2.6-.07,10.31,10.31,0,0,1-8.22-6,11.76,11.76,0,0,1-.89-5.27V190.58q0-10.94,0-22.26v-5.67a21.56,21.56,0,0,1,.1-2.88,10.3,10.3,0,0,1,4.58-7.24,10.37,10.37,0,0,1,5.61-1.66l87.23,0,38.07,0,17.26,0c1.39,0,2.74,0,4.12,0a10.16,10.16,0,0,1,3.92,1.1,10.28,10.28,0,0,1,5,5.89,11.54,11.54,0,0,1,.51,3.76c0,1.23,0,2.45,0,3.66,0,2.41,0,4.76,0,7.05,0,4.56,0,8.87,0,12.9,0,8,0,15,0,20.67a19.31,19.31,0,0,1-.24,4,10.11,10.11,0,0,1-5.46,6.91,9.8,9.8,0,0,1-3.26.93C418.62,217.91,418.23,217.9,418.23,217.9Z"/><path class="cls-6" d="M405.12,198.85h0a11.27,11.27,0,0,1-10.44-12h0a11.27,11.27,0,0,1,12.06-10.43h0a11.26,11.26,0,0,1,10.43,12h0A11.27,11.27,0,0,1,405.12,198.85Z"/><polygon class="cls-5" points="405.24 193.53 398.48 188.27 400.31 185.91 404.85 189.44 411.34 182.02 413.59 183.99 405.24 193.53"/><rect class="cls-2" x="330.69" y="182.41" width="55.99" height="13.58" rx="6.79"/><circle class="cls-5" cx="298.91" cy="185.39" r="25.47" transform="translate(-50.9 222.09) rotate(-37.8)"/><path class="cls-4" d="M276.29,196.79s.08.12.22.36l.6,1c.14.24.28.5.45.78s.39.57.62.89a18.6,18.6,0,0,0,1.64,2.13,24.3,24.3,0,0,0,5.55,4.84,25.58,25.58,0,0,0,9,3.62,25.24,25.24,0,0,0,11.71-.47,23.66,23.66,0,0,0,3.05-1.09c.5-.23,1-.42,1.52-.68l1.47-.82c.24-.14.5-.26.74-.42l.7-.49c.47-.34.95-.65,1.41-1a26.68,26.68,0,0,0,2.61-2.39,26.36,26.36,0,0,0,2.33-2.78c.35-.49.66-1,1-1.54a13.6,13.6,0,0,0,.91-1.63,30.8,30.8,0,0,0,1.51-3.47,31.12,31.12,0,0,0,.93-3.75,24.81,24.81,0,0,0,.17-7.89,25.24,25.24,0,0,0-7.09-14.39l-1.45-1.39L314.33,165a5.88,5.88,0,0,0-.81-.57l-.83-.52-.82-.53L311,163a28.22,28.22,0,0,0-3.53-1.55,28.55,28.55,0,0,0-3.67-.92,13.13,13.13,0,0,0-1.85-.28c-.62,0-1.23-.12-1.84-.14a27.19,27.19,0,0,0-3.62.15,26.64,26.64,0,0,0-3.48.61c-.56.14-1.11.34-1.66.5l-.82.26c-.27.09-.52.22-.79.33l-1.55.66c-.5.24-1,.53-1.46.79a23.88,23.88,0,0,0-2.72,1.76,25.59,25.59,0,0,0-9.69,25.69,19.7,19.7,0,0,0,.69,2.6c.12.37.21.72.33,1l.34.83.47,1.12.15.39s-.07-.12-.19-.37-.28-.63-.5-1.11c-.1-.25-.23-.52-.36-.83s-.22-.65-.34-1a18.13,18.13,0,0,1-.73-2.61,24.6,24.6,0,0,1-.52-7.39,25.65,25.65,0,0,1,2.6-9.45,25.37,25.37,0,0,1,7.57-9.13,24.07,24.07,0,0,1,2.75-1.79c.49-.26,1-.56,1.47-.8l1.57-.68c.27-.11.52-.24.8-.33l.83-.26c.55-.17,1.11-.37,1.68-.52a27,27,0,0,1,3.52-.62,26.31,26.31,0,0,1,3.67-.16c.62,0,1.24.1,1.87.14a13.19,13.19,0,0,1,1.87.28,28.9,28.9,0,0,1,3.72.93,30,30,0,0,1,3.59,1.56l.89.45.84.53.84.54a5.79,5.79,0,0,1,.82.58l1.59,1.24,1.47,1.41A25.51,25.51,0,0,1,324.8,182a25,25,0,0,1-.17,8,30,30,0,0,1-.95,3.79,29.21,29.21,0,0,1-1.53,3.52,14,14,0,0,1-.93,1.65c-.34.53-.66,1.06-1,1.57a27.93,27.93,0,0,1-2.37,2.81,26,26,0,0,1-2.64,2.41c-.46.36-1,.68-1.43,1l-.72.5c-.24.16-.5.28-.75.42l-1.49.83c-.5.26-1,.46-1.54.68a23.72,23.72,0,0,1-3.09,1.1A25.72,25.72,0,0,1,285.25,207a24.36,24.36,0,0,1-5.54-4.91,19.46,19.46,0,0,1-1.63-2.17c-.21-.32-.43-.62-.6-.9l-.43-.79-.58-1.08A3.57,3.57,0,0,1,276.29,196.79Z"/><path class="cls-6" d="M279.82,202l9.78-3.42,15.6-.6,14.38,2.77s-7,10.83-19.88,10.46A27.59,27.59,0,0,1,279.82,202Z"/><path class="cls-4" d="M309.43,163.06c3.29.07,6.11,5,5.62,7.72-.24,1.34-.84,2.87.24,3.86s3.32.9,4.34,1.91a4.24,4.24,0,0,1,1.17,3c-.15,1.69.13,3.93,1.47,4.53l-6.68,2.39c-.69-.69-1-1.79-1.66-2.49.79.73,1.56,3.34-2,3.63l-2.22-2c-6.08,1.56-12.47,3.5-17.33.85"/><path class="cls-4" d="M278.46,177.67a36.92,36.92,0,0,0,1.46-3.73c.66-2.8-.65-6,.76-8.51,1-1.78,3.1-2.63,5.07-3.19s3.85-.9,5.33-2.31c1.09-1,1.73-2.47,2.82-3.51a9,9,0,0,1,5.94-2,12.81,12.81,0,0,1,6.42,1.17,7,7,0,0,1,3.87,5,20.06,20.06,0,0,0,.32,3.2,22.26,22.26,0,0,0,1.73,3.07,5.65,5.65,0,0,1-1.54,6.73L295.2,192.76c-3.19,1.13-6.65-2.92-9.05-5.3S277.35,180.87,278.46,177.67Z"/><path class="cls-7" d="M310.29,171.1c-.54-4.43-3.8-9.72-8.2-9l-13.64,4.3c-1.34.22-2.05,1.28-2.51,1.08l4,31.71,9.35,6.63,5.82-7s-.43-4.35-.43-4.32,5.63-1.27,6.38-8.75C311.42,182.06,310.89,176,310.29,171.1Z"/><path class="cls-4" d="M298.35,177.84a.94.94,0,0,1-.86,1,.91.91,0,0,1-1-.8,1,1,0,0,1,.86-1A.91.91,0,0,1,298.35,177.84Z"/><path class="cls-4" d="M307.74,177.37a1,1,0,0,1-.86,1,.91.91,0,0,1-1-.8,1,1,0,0,1,.86-1A.91.91,0,0,1,307.74,177.37Z"/><path class="cls-4" d="M309.41,174.49c-.11.17-1-.41-2.09-.27s-1.83.89-2,.75,0-.36.33-.71a2.57,2.57,0,0,1,1.56-.78,2.5,2.5,0,0,1,1.69.4C309.31,174.14,309.46,174.41,309.41,174.49Z"/><path class="cls-4" d="M299.27,175.41c-.13.16-1-.49-2.18-.46s-2,.69-2.18.53.07-.35.44-.65a2.86,2.86,0,0,1,3.48-.06C299.2,175.07,299.34,175.34,299.27,175.41Z"/><path class="cls-4" d="M303.27,182.46a7.34,7.34,0,0,1,1.64-.39c.26,0,.5-.11.54-.29a1.35,1.35,0,0,0-.22-.76l-.89-2a32.37,32.37,0,0,1-2-5.1,35.4,35.4,0,0,1,2.44,4.92l.85,2a1.5,1.5,0,0,1,.2,1,.69.69,0,0,1-.41.41,1.52,1.52,0,0,1-.44.08A6.29,6.29,0,0,1,303.27,182.46Z"/><path class="cls-8" d="M304.67,194.53a18.86,18.86,0,0,1-10.08-2.08s2.81,5.29,10.19,4.17Z"/><path class="cls-6" d="M303,185a1.86,1.86,0,0,0-1.7-.58,1.65,1.65,0,0,0-1.12.69,1.05,1.05,0,0,0,0,1.22,1.24,1.24,0,0,0,1.36.26,4,4,0,0,0,1.26-.85,1.15,1.15,0,0,0,.27-.32.33.33,0,0,0,0-.38"/><path class="cls-4" d="M300.3,183.35c.16,0,.23,1.09,1.22,1.82s2.18.54,2.19.7-.25.23-.75.27a2.73,2.73,0,0,1-1.82-.52,2.43,2.43,0,0,1-1-1.53C300.11,183.63,300.22,183.34,300.3,183.35Z"/><path class="cls-4" d="M299.24,171.93c-.09.29-1.11.21-2.31.43s-2.14.59-2.31.35.07-.38.45-.68a3.85,3.85,0,0,1,1.69-.7,3.93,3.93,0,0,1,1.83.11C299,171.59,299.27,171.8,299.24,171.93Z"/><path class="cls-4" d="M309.1,170.8c-.19.24-1,0-2,.09s-1.78.26-2,0,0-.35.38-.6a3.11,3.11,0,0,1,1.58-.47,3,3,0,0,1,1.61.38C309.06,170.45,309.18,170.68,309.1,170.8Z"/><path class="cls-4" d="M274.08,176.25c.7-1.29-.65-2.74.42-3.93s3.57-1.12,4.49-2.23a2.35,2.35,0,0,0,.77-1.91c0-1,.5-5.29,6.74-6.16l.86,3.89c.39-.18.8-.34,1.2-.48a67.81,67.81,0,0,1,15.76-3.7,2.77,2.77,0,0,1-1,3.38,12.11,12.11,0,0,1-3.54,1.5,4.81,4.81,0,0,0-3,2.28c-.56,1.26-.14,2.76-.63,4-.84,2.2-3.94,2.86-4.77,5.07-.63,1.67,1,3.58,1.24,5.35.24,2,.65,5.11-.84,6.47a37.92,37.92,0,0,1-3.51,2.63l-18.42-11.57C268.9,178.53,273.11,178,274.08,176.25Z"/><path class="cls-4" d="M287.16,190.5a5.38,5.38,0,0,0,1.43-.49,7.14,7.14,0,0,0,3-2.78,7.25,7.25,0,0,0,.94-2.71,7.46,7.46,0,0,0-.3-3.28c-.17-.56-.38-1.11-.52-1.69a3.78,3.78,0,0,1-.05-1.77,2.16,2.16,0,0,1,1.05-1.42,10.72,10.72,0,0,1,1.79-.77,3.84,3.84,0,0,0,1.69-1.08,3.47,3.47,0,0,0,.64-1.85,11.88,11.88,0,0,1,.31-3.55l.08-.19.1-.18a2,2,0,0,1,.24-.33,2.47,2.47,0,0,1,.61-.51,5.72,5.72,0,0,1,1.43-.6,10.81,10.81,0,0,0,2.69-1,5.86,5.86,0,0,0,1.71-1.64,5.67,5.67,0,0,0,.77-1.61,5.4,5.4,0,0,0,.21-1.11v-.39a8.4,8.4,0,0,1-.3,1.47,5.59,5.59,0,0,1-.79,1.56,5.75,5.75,0,0,1-1.69,1.58,10.3,10.3,0,0,1-2.65.94,6.19,6.19,0,0,0-1.5.62,2.84,2.84,0,0,0-.66.55,2.22,2.22,0,0,0-.25.35l-.12.2-.09.2a12.08,12.08,0,0,0-.34,3.62,3.12,3.12,0,0,1-.59,1.72,3.63,3.63,0,0,1-1.59,1,11.7,11.7,0,0,0-1.83.78,2.78,2.78,0,0,0-.74.67,2.44,2.44,0,0,0-.41.9,4,4,0,0,0,.06,1.89c.14.59.35,1.15.53,1.69a7.19,7.19,0,0,1-.57,5.84,7.38,7.38,0,0,1-2.93,2.79,9.11,9.11,0,0,1-1,.44A1.91,1.91,0,0,0,287.16,190.5Z"/><path class="cls-4" d="M308.69,163.42s.4-.13,1.13-.2a5.42,5.42,0,0,1,3,.6,5.29,5.29,0,0,1,2.65,3.55,10.18,10.18,0,0,1,.1,2.72c0,.47-.09.95-.14,1.44a4.93,4.93,0,0,0,.06,1.53,1.83,1.83,0,0,0,.89,1.28,3.08,3.08,0,0,0,1.47.26,5.07,5.07,0,0,1,1.37.12,3.37,3.37,0,0,1,2.42,2.57,6.58,6.58,0,0,1,0,2.13,16,16,0,0,0-.17,1.79,4.78,4.78,0,0,0,.16,1.36,2.88,2.88,0,0,0,.36.78c.06.09.11.14.14.18s.05.06.05.05a3.5,3.5,0,0,1-.46-1,4.71,4.71,0,0,1-.11-1.32,16,16,0,0,1,.2-1.77,7,7,0,0,0,.05-2.2,3.49,3.49,0,0,0-1.32-2.13,3.45,3.45,0,0,0-1.24-.62,5.22,5.22,0,0,0-1.42-.13,3,3,0,0,1-1.37-.25,1.56,1.56,0,0,1-.77-1.11,11.82,11.82,0,0,1,.08-2.91,9.78,9.78,0,0,0-.12-2.77,5.37,5.37,0,0,0-2.79-3.66,5.24,5.24,0,0,0-3.09-.54,5.07,5.07,0,0,0-.84.18Z"/><path class="cls-9" d="M277.67,185.57a.82.82,0,0,0,0-.11,1.94,1.94,0,0,1-.11-.34,3,3,0,0,1-.06-1.35,3.37,3.37,0,0,1,1-1.85,2.91,2.91,0,0,1,1.16-.64c.45-.13,1-.17,1.48-.35a1.89,1.89,0,0,0,.72-.42,2,2,0,0,0,.48-.72,4.39,4.39,0,0,0,.22-1.81,9.56,9.56,0,0,1,0-1.93,2.44,2.44,0,0,1,.31-.93,2.4,2.4,0,0,1,.71-.71,6.53,6.53,0,0,1,2-.72,6.85,6.85,0,0,0,2.13-.78,2.6,2.6,0,0,0,.81-.87,3.61,3.61,0,0,0,.39-1.13c.15-.78.15-1.59.3-2.38a4.64,4.64,0,0,1,2.88-3.42,8.31,8.31,0,0,1,2.2-.37,4.46,4.46,0,0,0,1.09-.2,2.29,2.29,0,0,0,.94-.55,4.9,4.9,0,0,0,.93-1.85,4.7,4.7,0,0,1,1-1.64,4.87,4.87,0,0,1,3-1.53,4.37,4.37,0,0,1,2.73.59,5.07,5.07,0,0,1,1.57,1.45,4.6,4.6,0,0,1,.6,1.22c.06.15.07.27.1.34l0,.12a2.45,2.45,0,0,0-.1-.47,4.33,4.33,0,0,0-.58-1.24,5.14,5.14,0,0,0-1.57-1.49,4.48,4.48,0,0,0-2.79-.63,5,5,0,0,0-3.08,1.55,4.69,4.69,0,0,0-1,1.69,4.68,4.68,0,0,1-.91,1.79,3,3,0,0,1-1.94.71A8.4,8.4,0,0,0,292,165a4.79,4.79,0,0,0-3,3.53c-.15.81-.15,1.62-.3,2.39a3.37,3.37,0,0,1-.37,1.08,2.3,2.3,0,0,1-.77.81c-1.27.83-2.89.73-4.12,1.51a2.29,2.29,0,0,0-1.07,1.74,9.73,9.73,0,0,0,0,1.95,4.16,4.16,0,0,1-.2,1.77,1.76,1.76,0,0,1-.45.68,1.68,1.68,0,0,1-.68.4c-.49.18-1,.23-1.47.36a3.08,3.08,0,0,0-1.19.67,3.37,3.37,0,0,0-1,1.9,2.86,2.86,0,0,0,.08,1.37,1.4,1.4,0,0,0,.13.33A.61.61,0,0,0,277.67,185.57Z"/></g><g id="Character_1" data-name="Character 1"><circle class="cls-3" cx="140.63" cy="194.88" r="70.23" transform="translate(-27.62 23.28) rotate(-8.62)"/><path class="cls-7" d="M201.48,181.31l.81,29.9-10.67-16.42-25-.24,5.59,9.9c5.83,8.66,9.38,15.93,17,24.24,3.82,4.14,7.39,9.92,9.13,11.14,4.16,2.91,10.41,5.26,15.84.55,7.58-6.55,6.68-19.17,4.29-32.06-2.66-14.31-4.05-28.11-4.05-28.11Z"/><path class="cls-7" d="M204.43,163.21s-2.3-4.45-4.13-4-4.3,2-4.6,3.53.1,2.83.79,2.78a11.21,11.21,0,0,0,2.71-1.39l2.34,3.29-1,4.16-2.44,1.25-1.4-2.91.57-3.28s-1.65-1.4-2.58,1.22-2,7.37.66,9.66a79.84,79.84,0,0,0,7.65,5.39l11.95-1,2.87-14.08s4.77-4.85,5.08-6.83.57-8,.57-8a1.44,1.44,0,0,0-2.26.61c-.83,1.67-1.63,6.56-1.63,6.56l-4,3.85,1.57-17.26s-2.4-1.55-3.39,2.32-2.06,13.47-2.54,13.47-1.94,0-1.73-2-.45-17.38-.45-17.38-3.45.75-3.24,4,.09,13.42,0,14.19S204.43,163.21,204.43,163.21Z"/><path class="cls-8" d="M204.43,225.89a36.46,36.46,0,0,1-1.47-7.33,37.47,37.47,0,0,1-.55-7.5,72.34,72.34,0,0,1,1.11,7.4C204.07,222.54,204.58,225.85,204.43,225.89Z"/><path class="cls-8" d="M207.81,177.89c-.09,0-.26-.47-.69-1.18a7.86,7.86,0,0,0-2.14-2.36,8,8,0,0,0-2.91-1.31c-.8-.18-1.33-.19-1.34-.29a2.48,2.48,0,0,1,1.41-.11,6.82,6.82,0,0,1,5.34,3.88C207.84,177.33,207.87,177.88,207.81,177.89Z"/><polygon class="cls-7" points="114.9 178.47 130.99 176.84 158.34 178.03 170.79 182.33 153.47 199.88 130.57 197.02 120.3 191.2 114.9 178.47"/><path class="cls-4" d="M151,110.3c2.82-1.79,3.5-5.94,2-8.91s-4.77-4.77-8.07-5.3a15.38,15.38,0,0,0-13.24,4.38c-1.82,1.88-3.29,4.32-5.76,5.18-2.16.75-4.56.07-6.84.37a10.29,10.29,0,0,0-7.23,5.21,22.19,22.19,0,0,0-2.57,8.8c-.33,2.8-.55,5.88-2.5,7.93s-4.89,2.42-7.25,3.84a9.93,9.93,0,0,0-3,13.56c.93,1.37,2.27,2.62,2.38,4.26s-.87,2.85-1.33,4.29a6.7,6.7,0,0,0,5.74,8.32c2,.11,4.05-.65,5.81.23s2.39,3,3.5,4.56a8.38,8.38,0,0,0,10.22,2.64c1.44-.7,2.8-1.87,4.4-1.76s2.85,1.47,4.43,1.77c2,.4,4-1.11,5.23-2.82s2.07-3.7,3.64-5.09c2-1.83,4.93-2.28,7.52-3.17a21.22,21.22,0,0,0,12-29.73"/><path class="cls-9" d="M121.2,147.16a5.77,5.77,0,0,0-2.28-1.51h.17a4.17,4.17,0,0,0-.49-.08,2.27,2.27,0,0,0-1.79.22h0a4.21,4.21,0,0,0-2.31,2,5,5,0,0,0,.59,5.16,3.83,3.83,0,0,0,7-1.32A4.74,4.74,0,0,0,121.2,147.16Z"/><path class="cls-7" d="M158.34,178l3-55a4.66,4.66,0,0,0-4-4.85l-24.58-7c-7.91-1.06-13.46,8.56-14.19,16.5-.8,8.83-1.44,19.63-.58,26.26,1.73,13.33,12.65,15.34,12.65,15.34s.08,13.57,0,18.4l8.18,17.71Z"/><path class="cls-4" d="M123.5,137.73a1.71,1.71,0,0,0,1.59,1.76,1.63,1.63,0,0,0,1.8-1.48,1.7,1.7,0,0,0-1.59-1.77A1.63,1.63,0,0,0,123.5,137.73Z"/><path class="cls-4" d="M120.77,132.53c.21.22,1.52-.69,3.35-.64s3.15,1,3.36.8-.11-.51-.68-.95a4.67,4.67,0,0,0-2.67-.91,4.54,4.54,0,0,0-2.68.78C120.87,132,120.67,132.42,120.77,132.53Z"/><path class="cls-4" d="M140,138.16a1.7,1.7,0,0,0,1.6,1.76,1.61,1.61,0,0,0,1.79-1.48,1.7,1.7,0,0,0-1.59-1.77A1.64,1.64,0,0,0,140,138.16Z"/><path class="cls-4" d="M138.76,133.38c.2.23,1.52-.69,3.35-.63s3.15,1,3.35.79-.1-.51-.67-.95a4.73,4.73,0,0,0-2.68-.91,4.53,4.53,0,0,0-2.67.78C138.86,132.88,138.66,133.28,138.76,133.38Z"/><path class="cls-4" d="M131.73,146.77a11.38,11.38,0,0,0-3-.62c-.46-.07-.9-.17-1-.49a2.41,2.41,0,0,1,.35-1.38l1.48-3.52c2.06-5,3.57-9.14,3.37-9.22s-2,3.91-4.1,8.93c-.5,1.23-1,2.41-1.43,3.54a2.72,2.72,0,0,0-.29,1.83,1.13,1.13,0,0,0,.75.7,3.14,3.14,0,0,0,.79.14A12.28,12.28,0,0,0,131.73,146.77Z"/><path class="cls-8" d="M130.65,169.29a31.85,31.85,0,0,0,17.1-4.27s-3.84,9.86-17.08,8.24Z"/><path class="cls-8" d="M131.88,151.13a4.47,4.47,0,0,1,3.76-1.86,2.91,2.91,0,0,1,2.37,1.37,2.69,2.69,0,0,1-3.12,4,6.65,6.65,0,0,1-2.65-1.75,2,2,0,0,1-.56-.7.92.92,0,0,1,.1-.93"/><path class="cls-4" d="M137.08,148.19c-.29,0-.36,2-2.1,3.32s-3.85,1.08-3.87,1.36c0,.12.46.4,1.35.45a5,5,0,0,0,3.23-1,4.31,4.31,0,0,0,1.64-2.79C137.43,148.68,137.22,148.18,137.08,148.19Z"/><path class="cls-4" d="M138.16,125.82c.17.5,2,.32,4.15.64s3.86,1,4.15.51c.14-.21-.15-.68-.84-1.19a7.28,7.28,0,0,0-6.32-.88C138.5,125.2,138.09,125.58,138.16,125.82Z"/><path class="cls-4" d="M121.6,126.24c.31.43,1.58,0,3.1.06s2.79.35,3.1-.07c.13-.21-.06-.63-.61-1a4.2,4.2,0,0,0-2.5-.75,4.26,4.26,0,0,0-2.49.76C121.65,125.61,121.46,126,121.6,126.24Z"/><path class="cls-4" d="M109.64,124.05a9.11,9.11,0,0,1,3.5-5c1-.63,2.07-1,3-1.72,1.91-1.55,2.36-4.24,3.54-6.41a10,10,0,0,1,7.63-5.06c2.63-.27,5.34.52,7.9-.13,1.9-.47,3.55-1.7,5.47-2.07,3.74-.71,7.21,2,9.92,4.64,0,2.68-2.12,4.47-4.17,6.18a9.27,9.27,0,0,1-7.51,2c-2-.38-4.28-1.41-6-.32s-1.94,4-3.58,5.38c-2.36,2-6.1.12-9.1,1-2.3.69-3.75,2.89-5.28,4.75s-3.83,3.62-6.14,2.94A27,27,0,0,1,109.64,124.05Z"/><path class="cls-4" d="M137.7,112.74c1.68-.48,5.11-1.57,6-3a10.25,10.25,0,0,1,8.91-5.12,8.45,8.45,0,0,1,7.61,6.68A12.17,12.17,0,0,1,170.67,118a15.18,15.18,0,0,1,.66,1.56,9.28,9.28,0,0,1,.62,7.77c-.58,1.51-1.57,3.19-.79,4.61s2.79,1.49,4.35,2a6.14,6.14,0,0,1,3.87,6.86,7.43,7.43,0,0,0-.49,3,6.6,6.6,0,0,0,1.81,2.61,7.64,7.64,0,0,1-4.48,12.43c-1.19.22-2.48.17-3.52.81s-1.7,2.15-2.53,3.26a6.58,6.58,0,0,1-7.14,2.23,5.55,5.55,0,0,1-1.44-.72,4.72,4.72,0,0,1-4.19,1.86l.49-28a2.33,2.33,0,0,1-1.7,1.33c-4.48,1-5.14-8.24-4.14-10.75a26.27,26.27,0,0,1-4.51-4.73,18.89,18.89,0,0,1-2.06-9.08C143.86,115.22,137,113,137.7,112.74Z"/><path class="cls-7" d="M156.65,140.63c.15-2.84,3.62-3.45,6.09-2,1.35.78,2.39,2.35,2.26,5.37-.33,8.05-8.34,6.06-8.35,5.82S156.49,144,156.65,140.63Z"/><path class="cls-8" d="M159.24,146.86s.13.1.37.22a1.41,1.41,0,0,0,1,.06c.87-.27,1.64-1.6,1.74-3a4.74,4.74,0,0,0-.31-2,1.64,1.64,0,0,0-1-1.12.74.74,0,0,0-.85.35c-.11.22-.07.39-.11.4s-.17-.14-.09-.47a.9.9,0,0,1,.34-.5,1.11,1.11,0,0,1,.78-.17,2,2,0,0,1,1.41,1.31,4.64,4.64,0,0,1,.4,2.26c-.12,1.62-1,3.11-2.19,3.4a1.51,1.51,0,0,1-1.27-.27C159.24,147.05,159.21,146.87,159.24,146.86Z"/><path class="cls-9" d="M148.78,110.56a4.69,4.69,0,0,1,1.61,1.35c.8,1.1,1.1,3.2.59,5.57l0,.2.2,0a7.76,7.76,0,0,1,5.18,4.57,5.92,5.92,0,0,1,.42,2,12.45,12.45,0,0,1-.25,2.13,16.22,16.22,0,0,0-.31,2.29,3.82,3.82,0,0,0,.64,2.37,9.64,9.64,0,0,0,4,3,13.54,13.54,0,0,1,3.74,2.45,10.06,10.06,0,0,1,3,6.74,10.57,10.57,0,0,1-1.06,5c-.54,1.1-1,1.62-.94,1.66s.13-.12.34-.37a7.31,7.31,0,0,0,.79-1.19,10.17,10.17,0,0,0,1.27-5.09,10.37,10.37,0,0,0-3-7.1,13.72,13.72,0,0,0-3.85-2.57,9.36,9.36,0,0,1-3.77-2.82c-.89-1.22-.5-2.81-.26-4.26a12.69,12.69,0,0,0,.25-2.23,6.61,6.61,0,0,0-.47-2.15,8.16,8.16,0,0,0-5.58-4.78l.15.25c.48-2.48.1-4.66-.81-5.8a3.29,3.29,0,0,0-1.26-1A2.19,2.19,0,0,0,148.78,110.56Z"/><path class="cls-9" d="M162.25,149.87a5.88,5.88,0,0,0-2.29-1.51h.17a3.85,3.85,0,0,0-.49-.08,2.27,2.27,0,0,0-1.79.22h0a4.23,4.23,0,0,0-2.31,2,5,5,0,0,0,.59,5.17,3.83,3.83,0,0,0,7-1.32A4.76,4.76,0,0,0,162.25,149.87Z"/><path class="cls-9" d="M177.4,253.92l.16-33.83,3.15,6.24,19.67-19.56s-9.52-17.31-13.92-20.67-21.63-6.84-22.74-7.49c0,0-4.46,7.52-18.36,11.68s-25.56-13.76-25.56-13.76l-15.82.7s-1.34,23.74-1.58,40c-.07,4.78.21,8.95.33,11.63.52,11.8,12.42,32.11,12.42,32.11s16.91,6,34.79,3.81S177.4,253.92,177.4,253.92Z"/><path class="cls-9" d="M104,177.23C95.74,179,88.35,189.34,79.5,209.67l24.06,18Z"/><path class="cls-4" d="M178.59,199.37a3.53,3.53,0,0,1,.15,1.07c.06.68.12,1.68.16,2.91.08,2.46.07,5.87-.16,9.62s-.63,7.14-1,9.57c-.19,1.22-.36,2.2-.5,2.88a3.91,3.91,0,0,1-.28,1,29.89,29.89,0,0,1,.36-4c.27-2.44.6-5.82.83-9.55s.3-7.13.32-9.59A33.81,33.81,0,0,1,178.59,199.37Z"/><path class="cls-4" d="M104.73,194.08a5.49,5.49,0,0,1-.12,1.33c-.14,1-.31,2.16-.51,3.58-.44,3-1,7.19-1.38,11.83a106.18,106.18,0,0,0-.22,11.9c.07,1.42.12,2.63.17,3.61a6.19,6.19,0,0,1,0,1.33,5.44,5.44,0,0,1-.24-1.31c-.13-.85-.25-2.08-.36-3.61a82.24,82.24,0,0,1,0-12,113.89,113.89,0,0,1,1.56-11.86c.27-1.51.52-2.72.71-3.55A5.63,5.63,0,0,1,104.73,194.08Z"/><path class="cls-4" d="M142.39,206.46l.81,32.31a3,3,0,0,1-2.91,3l-13.61.32a3,3,0,0,1-3.05-2.78l-2.2-32a3,3,0,0,1,2.84-3.19l15-.66A3,3,0,0,1,142.39,206.46Z"/><path class="cls-5" d="M130.57,210.14a1.26,1.26,0,1,0,1.2-1.31A1.25,1.25,0,0,0,130.57,210.14Z"/><path class="cls-7" d="M122.09,214.78s-3.68,4.78-5,6.89-1.55,8.8-1.55,8.8l0,4.65-7.37,3.26,5.69,15.88,11.18-9.67,11.29-2.12s5.21-5.36,6-7.76a11,11,0,0,0,.64-4.23,80.63,80.63,0,0,0,2.74-7.62,28.57,28.57,0,0,0,.27-5.45s-1.45-.34-2.58,2.07l1.77-4.08s-1.16-3-3.69.06-6.71,8.3-6.71,8.3L130,228l-.65-.69s8.43-11.25,8.14-13.19-2.14-2-4,.18-9.39,12.73-10.41,12.88-1.39-1.28-1.39-1.28l.55-3.92.37-.84Z"/><path class="cls-8" d="M136.63,230.36a3.16,3.16,0,0,0,.34-.4c.21-.27.5-.66.85-1.15.7-1,1.64-2.36,2.6-3.93s1.79-3,2.35-4.08c.29-.53.51-1,.65-1.27a2.54,2.54,0,0,0,.21-.49,2.13,2.13,0,0,0-.29.44l-.72,1.24c-.6,1-1.44,2.47-2.4,4s-1.88,3-2.54,4c-.31.47-.57.87-.79,1.19A1.76,1.76,0,0,0,136.63,230.36Z"/><path class="cls-8" d="M139.25,235.38a31.44,31.44,0,0,0,2.29-3.26,30.66,30.66,0,0,0,2.07-3.39,66.33,66.33,0,0,0-4.36,6.65Z"/><path class="cls-7" d="M83,212.25s-12.47,32.67-13,44c-.54,10.3,8.37,16.52,15.1,15.54,15.8-2.29,40.06-27.16,40.06-27.16l-9.12-9.68-21.31,9.55,6.62-18.56Z"/><g class="cls-10"><path d="M200.05,243c2.64-6.45.67-14.26-4-19.4s-11.77-7.74-18.74-8a33.53,33.53,0,0,0-30.67,49.44,28.23,28.23,0,0,0,9.86-2.42C160.66,260.52,200.05,243,200.05,243Z"/></g><circle class="cls-6" cx="175.37" cy="248.16" r="26.59" transform="translate(-102.33 124.79) rotate(-30.8)"/><polygon class="cls-5" points="173.48 260.55 159.69 248.99 163.72 244.18 172.97 251.93 187.15 236.85 191.72 241.16 173.48 260.55"/></g></g></svg>