<?xml version="1.0" encoding="utf-8"?>
<!-- Generator: Adobe Illustrator 25.3.1, SVG Export Plug-In . SVG Version: 6.00 Build 0)  -->
<svg version="1.1" id="Layer_1" xmlns="http://www.w3.org/2000/svg" xmlns:xlink="http://www.w3.org/1999/xlink" x="0px" y="0px"
	 viewBox="0 0 24 24" style="enable-background:new 0 0 24 24;" xml:space="preserve">
<style type="text/css">
	.st0{fill:none;stroke:#04151E;stroke-width:2;stroke-linecap:round;stroke-linejoin:round;}
</style>
<path class="st0" d="M15,17v1c0,1.7-1.3,3-3,3s-3-1.3-3-3v-1 M15,17H9 M15,17h3.6c0.4,0,0.6,0,0.7-0.1c0.3-0.1,0.5-0.3,0.6-0.6
	C20,16.2,20,16,20,15.6c0-0.2,0-0.3,0-0.3c0-0.2-0.1-0.3-0.2-0.4c0-0.1-0.1-0.1-0.2-0.2l-0.4-0.4c-0.1-0.1-0.2-0.3-0.2-0.5V10
	c0-3.9-3.1-7-7-7c-3.9,0-7,3.1-7,7v3.7c0,0.2-0.1,0.3-0.2,0.5l-0.4,0.4c-0.1,0.1-0.2,0.2-0.2,0.2C4.1,15,4,15.1,4,15.3
	c0,0.1,0,0.2,0,0.3c0,0.4,0,0.6,0.1,0.7c0.1,0.3,0.3,0.5,0.6,0.6C4.8,17,5,17,5.4,17H9"/>
</svg>
