<?xml version="1.0" encoding="utf-8"?>
<!-- Generator: Adobe Illustrator 25.3.1, SVG Export Plug-In . SVG Version: 6.00 Build 0)  -->
<svg version="1.1" id="Layer_1" xmlns="http://www.w3.org/2000/svg" xmlns:xlink="http://www.w3.org/1999/xlink" x="0px" y="0px"
	 viewBox="0 0 800 800" style="enable-background:new 0 0 800 800;" xml:space="preserve">
<style type="text/css">
	.st0{fill:#AD0B0B;}
	.st1{fill:#FEC1C1;}
	.st2{font-family:'FredokaOne-Regular';}
	.st3{font-size:410.3958px;}
</style>
<path class="st0" d="M766.7,400c0-51.7-26.9-95.8-66.4-124.3c8-48.1-4.5-98.6-40.9-135c-36.4-36.4-86.9-48.9-134.9-40.9
	c-28.4-39.7-72.9-66.4-124.4-66.4c-51.6,0-95.8,26.8-124.1,66.4c-48.2-8-98.8,4.4-135.2,40.9c-36.5,36.5-48.7,87-40.6,135
	C60.5,304.1,33.3,348.3,33.3,400s27.2,95.9,66.7,124.3c-8.1,48,4.1,98.5,40.6,135s87.1,48.6,135,40.8
	c28.4,39.6,72.7,66.5,124.4,66.5c51.5,0,96.1-26.8,124.5-66.5c47.9,7.8,98.4-4.3,134.9-40.8c36.4-36.4,48.9-86.9,40.9-135
	C739.8,495.9,766.7,451.7,766.7,400z"/>
<text transform="matrix(1 0 0 1 247.9633 538.3912)" class="st1 st2 st3">X</text>
</svg>
